<svg width="20" height="20" viewBox="0 0 20 20" fill="none" xmlns="http://www.w3.org/2000/svg">
<path d="M2.64168 6.19995L10 10.4583L17.3083 6.22492" stroke="#6B7280" stroke-linecap="round" stroke-linejoin="round"/>
<path d="M10 18.0083V10.45" stroke="#6B7280" stroke-linecap="round" stroke-linejoin="round"/>
<path d="M8.275 2.06663L3.825 4.54165C2.81667 5.09999 1.99168 6.49997 1.99168 7.64997V12.3583C1.99168 13.5083 2.81667 14.9083 3.825 15.4666L8.275 17.9417C9.225 18.4667 10.7833 18.4667 11.7333 17.9417L16.1834 15.4666C17.1917 14.9083 18.0167 13.5083 18.0167 12.3583V7.64997C18.0167 6.49997 17.1917 5.09999 16.1834 4.54165L11.7333 2.06663C10.775 1.53329 9.225 1.53329 8.275 2.06663Z" stroke="#6B7280" stroke-linecap="round" stroke-linejoin="round"/>
<path d="M14.1667 11.0333V7.98333L6.25835 3.41663" stroke="#6B7280" stroke-linecap="round" stroke-linejoin="round"/>
</svg>
