<svg width="20" height="20" viewBox="0 0 20 20" fill="none" xmlns="http://www.w3.org/2000/svg">
<path d="M18.0583 11.9167L17.725 16.0833C17.6 17.3583 17.5 18.3333 15.2417 18.3333H4.75833C2.5 18.3333 2.4 17.3583 2.275 16.0833L1.94167 11.9167C1.875 11.225 2.09167 10.5833 2.48333 10.0917C2.49167 10.0833 2.49167 10.0833 2.5 10.075C2.95833 9.51667 3.65 9.16667 4.425 9.16667H15.575C16.35 9.16667 17.0333 9.51667 17.4833 10.0583C17.4917 10.0667 17.5 10.075 17.5 10.0833C17.9083 10.575 18.1333 11.2167 18.0583 11.9167Z" stroke="#6B7280" stroke-miterlimit="10"/>
<path d="M2.91666 9.525V5.23333C2.91666 2.4 3.625 1.69167 6.45833 1.69167H7.51666C8.575 1.69167 8.81666 2.00833 9.21666 2.54167L10.275 3.95833C10.5417 4.30833 10.7 4.525 11.4083 4.525H13.5333C16.3667 4.525 17.075 5.23333 17.075 8.06667V9.55833" stroke="#6B7280" stroke-miterlimit="10" stroke-linecap="round" stroke-linejoin="round"/>
<path d="M7.85833 14.1667H12.1417" stroke="#6B7280" stroke-miterlimit="10" stroke-linecap="round" stroke-linejoin="round"/>
</svg>
