<svg width="16" height="18" viewBox="0 0 16 18" fill="none" xmlns="http://www.w3.org/2000/svg">
<path d="M15.5 4.83329V13.1666C15.5 15.6666 14.25 17.3333 11.3333 17.3333H4.66667C1.75 17.3333 0.5 15.6666 0.5 13.1666V4.83329C0.5 2.33329 1.75 0.666626 4.66667 0.666626H11.3333C14.25 0.666626 15.5 2.33329 15.5 4.83329Z" stroke="#6B7280" stroke-miterlimit="10" stroke-linecap="round" stroke-linejoin="round"/>
<path d="M15.5 4.83329V13.1666C15.5 15.6666 14.25 17.3333 11.3333 17.3333H4.66667C1.75 17.3333 0.5 15.6666 0.5 13.1666V4.83329C0.5 2.33329 1.75 0.666626 4.66667 0.666626H11.3333C14.25 0.666626 15.5 2.33329 15.5 4.83329Z" stroke="black" stroke-opacity="0.2" stroke-miterlimit="10" stroke-linecap="round" stroke-linejoin="round"/>
</svg>
