<svg width="20" height="20" viewBox="0 0 20 20" fill="none" xmlns="http://www.w3.org/2000/svg">
<path d="M14.1666 11.1667V13.6667C14.1666 17 12.8333 18.3334 9.49996 18.3334H6.33329C2.99996 18.3334 1.66663 17 1.66663 13.6667V10.5C1.66663 7.16671 2.99996 5.83337 6.33329 5.83337H8.83329" stroke="#6B7280" stroke-linecap="round" stroke-linejoin="round"/>
<path d="M14.1667 11.1667H11.5C9.50004 11.1667 8.83337 10.5 8.83337 8.50004V5.83337L14.1667 11.1667Z" stroke="#6B7280" stroke-linecap="round" stroke-linejoin="round"/>
<path d="M9.66663 1.66663H13" stroke="#6B7280" stroke-linecap="round" stroke-linejoin="round"/>
<path d="M5.83337 4.16663C5.83337 2.78329 6.95004 1.66663 8.33337 1.66663H10.5167" stroke="#6B7280" stroke-linecap="round" stroke-linejoin="round"/>
<path d="M18.3334 6.66663V11.825C18.3334 13.1166 17.2834 14.1666 15.9917 14.1666" stroke="#6B7280" stroke-linecap="round" stroke-linejoin="round"/>
<path d="M18.3334 6.66663H15.8334C13.9584 6.66663 13.3334 6.04163 13.3334 4.16663V1.66663L18.3334 6.66663Z" stroke="#6B7280" stroke-linecap="round" stroke-linejoin="round"/>
</svg>
