<svg width="51" height="53" viewBox="0 0 51 53" fill="none" xmlns="http://www.w3.org/2000/svg">
<g clip-path="url(#clip0_1_1033)">
<path d="M50.9506 27.4826C50.9466 25.0077 49.1008 22.9089 46.6594 22.5018C40.6914 21.5062 33.1842 22.1158 25.475 27.5246C15.9419 34.2137 6.71697 33.5631 0.330444 31.6128C2.28726 43.7382 12.7974 52.9997 25.475 52.9997C39.5447 52.9997 50.9501 41.5939 50.9501 27.5246C50.9506 27.5106 50.9506 27.4966 50.9506 27.4826Z" fill="#112564"/>
<path d="M1.06317 29.214C6.48654 30.8693 14.6519 31.6154 23.1707 26.055C16.2811 22.0224 9.66204 21.6053 4.29118 22.502C1.84979 22.9095 0.00400064 25.0079 0 27.4828C0 27.4968 0 27.5108 0 27.5248C0 27.9868 0.0140119 28.4454 0.0380157 28.9015L1.06317 29.214Z" fill="#DB4DFF"/>
<path d="M50.9506 27.4826C50.9466 25.0077 49.1008 22.9089 46.6594 22.5018C40.6914 21.5062 33.1842 22.1158 25.475 27.5246C15.9419 34.2137 6.71697 33.5631 0.330444 31.6128C2.28726 43.7382 12.7974 52.9997 25.475 52.9997C39.5447 52.9997 50.9501 41.5939 50.9501 27.5246C50.9506 27.5106 50.9506 27.4966 50.9506 27.4826Z" fill="#112564"/>
<path d="M31.7965 10.7852L25.4755 0L19.1539 10.7852C16.291 15.6695 19.8136 21.817 25.4755 21.817C31.1369 21.8175 34.6589 15.67 31.7965 10.7852Z" fill="#112564"/>
</g>
<defs>
<clipPath id="clip0_1_1033">
<rect width="50.9507" height="53" fill="white"/>
</clipPath>
</defs>
</svg>
