<svg width="212" height="66" viewBox="0 0 212 66" fill="none" xmlns="http://www.w3.org/2000/svg">
<path d="M60.1953 51V15H66.5313V45.672L64.6113 44.472L88.7073 15H95.5713L65.8593 51H60.1953ZM77.3313 32.904L81.7953 28.536L96.0993 51H88.8513L77.3313 32.904ZM124.041 51L121.391 42.9H106.591L103.941 51H98.5408L110.241 15H117.741L129.441 51H124.041ZM108.191 38H119.741L113.941 20.3L108.191 38ZM141.137 15V46.05H157.437V51H135.887V15H141.137ZM168.874 15V46.05H185.174V51H163.624V15H168.874ZM191.361 15H196.611V51H191.361V15Z" fill="black"/>
<path d="M49.9999 31.1567C49.996 28.728 48.1846 26.6683 45.7888 26.2689C39.9322 25.2918 32.5651 25.89 24.9997 31.1979C15.6445 37.7622 6.59165 37.1237 0.324293 35.2098C2.24459 47.109 12.5587 56.1977 24.9997 56.1977C38.8069 56.1977 49.9994 45.0047 49.9994 31.1979C49.9999 31.1842 49.9999 31.1705 49.9999 31.1567Z" fill="#112564"/>
<path d="M1.04334 32.8561C6.36551 34.4805 14.3785 35.2127 22.7384 29.7561C15.9773 25.7986 9.48176 25.3894 4.21112 26.2693C1.81528 26.6692 0.00392599 28.7284 0 31.1571C0 31.1709 0 31.1846 0 31.1984C0 31.6518 0.0137504 32.1018 0.0373064 32.5494L1.04334 32.8561Z" fill="#112564"/>
<path d="M49.9999 31.1567C49.996 28.728 48.1846 26.6683 45.7888 26.2689C39.9322 25.2918 32.5651 25.89 24.9997 31.1979C15.6445 37.7622 6.59165 37.1237 0.324293 35.2098C2.24459 47.109 12.5587 56.1977 24.9997 56.1977C38.8069 56.1977 49.9994 45.0047 49.9994 31.1979C49.9999 31.1842 49.9999 31.1705 49.9999 31.1567Z" fill="#112564"/>
<path d="M31.2032 14.7705L25.0001 4.18652L18.7966 14.7705C15.987 19.5637 19.4438 25.5964 25.0001 25.5964C30.5559 25.5969 34.0122 19.5642 31.2032 14.7705Z" fill="#112564"/>
</svg>
